<?xml version="1.0" encoding="utf-8"?>
<!-- Generator: Adobe Illustrator 28.1.0, SVG Export Plug-In . SVG Version: 6.00 Build 0)  -->
<svg version="1.1" id="logos" xmlns="http://www.w3.org/2000/svg" xmlns:xlink="http://www.w3.org/1999/xlink" x="0px" y="0px" width="344" height="120" 
	 viewBox="0 0 546.5 132.3" style="enable-background:new 0 0 546.5 132.3;" xml:space="preserve">
<style type="text/css">
	.st0{fill:#000033;}
	.st1{fill:url(#SVGID_1_);}
	.st2{fill:url(#SVGID_00000002383579396456750270000005407707332762087082_);}
	.st3{fill:url(#SVGID_00000078010439501494537750000008817267278351194261_);}
	.st4{fill:#94949B;}
</style>
<g id="New_Symbol_1">
	<g>
		<g>
			<g>
				<path class="st0" d="M137.6,15.2l25.1,64.1H152l-5.8-14.9l-0.1-0.2h-27.6l-5.6,15.1h-10.7l24-64.1
					C126.1,15.2,137.6,15.2,137.6,15.2z M142.2,54.3l-9.9-25.2l-0.4-1l-9.6,25.7l-0.2,0.6H142.2z"/>
				<path class="st0" d="M252.8,78.8V31.3h-10.1V65l-0.1,0.3c-0.1,0.2-3,5.4-9.3,5.4c-7.3,0-10.5-5.3-10.5-10.5v-29h-10v32.6
					c0,8.9,7.2,16.1,16.1,16.1c7,0,11.6-3.5,13.8-6.8v5.6H252.8z"/>
				<path class="st0" d="M188.9,30.4c9.2,0,14.8,3.9,18.1,8.4l-6.8,6.3c-2.6-3.7-6.3-5.6-10.9-5.6c-8.6,0-14.3,6.5-14.3,15.7
					s5.7,15.8,14.3,15.8c4.6,0,8.2-2,10.9-5.6l6.8,6.3c-3.3,4.5-8.9,8.4-18.1,8.4c-14.4,0-24.5-10.5-24.5-24.9
					S174.5,30.4,188.9,30.4L188.9,30.4z"/>
				<rect x="432.3" y="31.3" class="st0" width="9.8" height="47.3"/>
				<path class="st0" d="M431.4,17.8v-1.5c0-3,1.8-5.2,5.9-5.2s5.8,2.2,5.8,5.2v1.5c0,3-1.7,5.2-5.8,5.2S431.4,20.8,431.4,17.8z"/>
				<path class="st0" d="M413.1,19.4h-9.8v11.9h-6.4V40h6.2l0.2,29.9c0,4.8,3.9,8.8,8.8,8.8h9.1v-9.4h-8.1V40h9.6v-8.7h-9.6
					L413.1,19.4L413.1,19.4z"/>
				<path class="st0" d="M378.1,31.4v5.7c-2.6-3.5-8.2-7-15.2-7c-13.3,0-23,10.5-23,24.9c0,12.5,7.9,25.2,22.9,25.2
					c10.6,0,15.3-7.1,15.3-7.1v5.6h9.9V31.4L378.1,31.4L378.1,31.4z M364.3,71.4c-8.2,0-14.2-6.8-14.2-16.2s6-16.3,14.2-16.3
					c7.2,0,14.5,5.1,14.5,16.4C378.8,63.1,374.3,71.4,364.3,71.4L364.3,71.4z"/>
				<path class="st0" d="M535.7,31.4v5.7c-2.7-3.5-8.2-7-15.2-7c-13.3,0-23,10.5-23,24.9c0,12.5,7.9,25.2,22.9,25.2
					c10.6,0,15.3-7.1,15.3-7.1v5.6h9.9V31.4L535.7,31.4L535.7,31.4z M521.9,71.4c-8.2,0-14.2-6.8-14.2-16.2s6-16.3,14.2-16.3
					c7.2,0,14.5,5.1,14.5,16.4C536.4,63.1,531.9,71.4,521.9,71.4L521.9,71.4z"/>
				<path class="st0" d="M474.8,30.4c9.2,0,14.8,3.9,18.1,8.4l-6.8,6.3c-2.6-3.7-6.3-5.6-10.9-5.6c-8.6,0-14.3,6.5-14.3,15.7
					s5.7,15.8,14.3,15.8c4.6,0,8.2-2,10.9-5.6l6.8,6.3c-3.3,4.5-8.9,8.4-18.1,8.4c-14.4,0-24.5-10.5-24.5-24.9
					S460.3,30.4,474.8,30.4L474.8,30.4z"/>
				<path class="st0" d="M316.6,30c-7.3,0-13.1,4.7-15.5,9c-2.6-5.3-8.1-9-14.5-9c-7,0-11.6,3.5-13.8,6.8v-5.6h-10.1v47.5h10.1V45
					l0.1-0.3c0.1-0.2,3-5.4,9.3-5.4c7.3,0,10.5,5.3,10.5,10.5v29h10V46.1c0-0.2,0-0.4,0-0.6l0.1-0.5l0.1-0.3c0.1-0.2,3-5.4,9.3-5.4
					c7.3,0,10.5,5.3,10.5,10.5v29h10V46.1C332.7,37.2,325.5,30,316.6,30L316.6,30z"/>
			</g>
			<g>
				
					<linearGradient id="SVGID_1_" gradientUnits="userSpaceOnUse" x1="43.3724" y1="172.3816" x2="18.6324" y2="100.0216" gradientTransform="matrix(1 0 0 -1 0 177.7185)">
					<stop  offset="0" style="stop-color:#00649C"/>
					<stop  offset="0.11" style="stop-color:#0875AC"/>
					<stop  offset="0.37" style="stop-color:#1A9ACF"/>
					<stop  offset="0.62" style="stop-color:#28B5E9"/>
					<stop  offset="0.83" style="stop-color:#30C6F9"/>
					<stop  offset="1" style="stop-color:#33CCFF"/>
				</linearGradient>
				<path class="st1" d="M33.4,73.2c4.8,3.8,10.8,6.1,17.4,6.1h-11C29,79.3,19.3,75,12.3,67.9S0.9,51.2,0.9,40.4
					c0-21.5,17.4-38.9,38.9-38.9c4.6,0,8.9,0.8,13,2.2c-2.5-0.7-5.2-1.1-7.9-1.1c-11.5,0-21.5,7-25.7,17c-1.4,3.3-2.2,7-2.2,10.9
					c0,6.6,2.3,12.7,6.1,17.5c-0.1,1.1-0.2,2.3-0.2,3.4c0,7.7,3.1,14.7,8.2,19.7C31.8,71.9,32.6,72.6,33.4,73.2L33.4,73.2z"/>
				
					<linearGradient id="SVGID_00000163054151188067704970000002124384425360348856_" gradientUnits="userSpaceOnUse" x1="24.839" y1="127.685" x2="81.459" y2="124.685" gradientTransform="matrix(1 0 0 -1 0 177.7185)">
					<stop  offset="0" style="stop-color:#00649C"/>
					<stop  offset="0.11" style="stop-color:#0875AC"/>
					<stop  offset="0.37" style="stop-color:#1A9ACF"/>
					<stop  offset="0.62" style="stop-color:#28B5E9"/>
					<stop  offset="0.83" style="stop-color:#30C6F9"/>
					<stop  offset="1" style="stop-color:#33CCFF"/>
				</linearGradient>
				<path style="fill:url(#SVGID_00000163054151188067704970000002124384425360348856_);" d="M78.7,51.4v27.9H50.8
					c-6.6,0-12.7-2.3-17.4-6.1c-0.8-0.7-1.6-1.3-2.3-2.1c-5-5.1-8.2-12-8.2-19.7c0-1.2,0.1-2.3,0.2-3.4c0.6,0.8,1.3,1.6,2,2.3
					c5,5.1,12,8.2,19.7,8.2H58V45.3c0-8.7-4-16.5-10.3-21.6c1-0.1,2-0.2,3.1-0.2c8.9,0,16.9,4.2,22,10.7
					C76.5,38.9,78.7,44.9,78.7,51.4L78.7,51.4z"/>
				
					<linearGradient id="SVGID_00000154427702672827884320000012088176190617523099_" gradientUnits="userSpaceOnUse" x1="77.0422" y1="138.8482" x2="19.6822" y2="157.9682" gradientTransform="matrix(1 0 0 -1 0 177.7185)">
					<stop  offset="0" style="stop-color:#00649C"/>
					<stop  offset="0.11" style="stop-color:#0875AC"/>
					<stop  offset="0.37" style="stop-color:#1A9ACF"/>
					<stop  offset="0.62" style="stop-color:#28B5E9"/>
					<stop  offset="0.83" style="stop-color:#30C6F9"/>
					<stop  offset="1" style="stop-color:#33CCFF"/>
				</linearGradient>
				<path style="fill:url(#SVGID_00000154427702672827884320000012088176190617523099_);" d="M78.7,40.4v11c0-6.5-2.2-12.5-5.9-17.2
					c-5.1-6.5-13.1-10.7-22-10.7c-1,0-2.1,0.1-3.1,0.2C34.9,25.1,24.7,35.2,23.1,48C19.3,43.2,17,37.1,17,30.5
					c0-3.9,0.8-7.6,2.2-10.9c4.2-10,14.2-17,25.7-17c2.8,0,5.4,0.4,7.9,1.1c3.3,1.2,6.3,2.7,9.1,4.7C72.1,15.4,78.7,27.1,78.7,40.4
					L78.7,40.4z"/>
			</g>
		</g>
		<g>
			<path class="st4" d="M305.4,130.7v-21.4h-7.7V106h19v3.3h-7.6v21.4H305.4L305.4,130.7z"/>
			<path class="st4" d="M348.8,112.4c5.4,0,8.7,4.2,8.7,9.7v0.8h-14.1c0.3,3,2.5,5.6,6.1,5.6c1.9,0,4-0.7,5.3-2.1l1.5,2.2
				c-1.8,1.7-4.3,2.7-7.2,2.7c-5.3,0-9.3-3.8-9.3-9.4C339.8,116.6,343.6,112.4,348.8,112.4L348.8,112.4z M343.3,120.4h10.9
				c-0.1-2.4-1.7-5.3-5.4-5.3S343.5,118,343.3,120.4z"/>
			<path class="st4" d="M371.2,118.4c0-7.6,5.6-12.8,12.7-12.8c4.9,0,7.9,2.3,9.8,5.2l-3.1,1.7c-1.3-2.1-3.7-3.6-6.7-3.6
				c-5,0-8.9,3.9-8.9,9.5s3.9,9.5,8.9,9.5c2.9,0,5.4-1.5,6.7-3.6l3.1,1.7c-2,2.9-5,5.2-9.8,5.2C376.8,131.2,371.2,126,371.2,118.4
				L371.2,118.4z"/>
			<path class="st4" d="M397.8,130.7V106h3.3v24.7H397.8z"/>
			<path class="st4" d="M405.4,121.7c0-5.1,3.5-9.4,9-9.4s9,4.2,9,9.4s-3.4,9.4-9,9.4S405.4,126.9,405.4,121.7z M420,121.7
				c0-3.4-2-6.4-5.5-6.4s-5.5,3-5.5,6.4s2,6.4,5.5,6.4S420,125.1,420,121.7z"/>
			<path class="st4" d="M439.3,130.7v-2.4c0,0-1.9,2.9-5.9,2.9c-3.4,0-6.2-2.8-6.2-6.2v-12.1h3.3v11.5c0,3,2.1,3.9,4.4,3.9
				c2.1,0,3.4-1.2,4.4-2.5v-12.9h3.3v17.9L439.3,130.7L439.3,130.7z"/>
			<path class="st4" d="M477.3,130.7V106h17.5v4.5h-12.2v5.4h12v4.5h-12v5.7h12.2v4.6L477.3,130.7L477.3,130.7z"/>
			<path class="st4" d="M514.6,130.7l-4.9-8.9h-3.8v8.9h-5.3V106h11.6c5.2,0,8.3,3.4,8.3,8s-2.7,6.7-5.4,7.3l5.5,9.4L514.6,130.7
				L514.6,130.7z M511.4,110.5h-5.5v6.8h5.5c2.1,0,3.7-1.3,3.7-3.4S513.5,110.5,511.4,110.5L511.4,110.5z"/>
			<path class="st4" d="M525.8,130.7V106h11.5c5.4,0,8.3,3.6,8.3,8s-3,7.9-8.3,7.9H531v8.9L525.8,130.7L525.8,130.7z M536.6,110.5
				H531v6.8h5.6c2.1,0,3.6-1.3,3.6-3.4S538.7,110.5,536.6,110.5L536.6,110.5z"/>
			<path class="st4" d="M324.2,106v9.3c0,0,1.9-2.9,5.9-2.9c3.4,0,6.2,2.8,6.2,6.2v12.1h-3.3v-11.5c0-3-2.1-3.9-4.4-3.9
				c-2.1,0-3.4,1.2-4.4,2.5v12.9h-3.3V106L324.2,106L324.2,106z"/>
			<path class="st4" d="M460.4,106v9.4c-1.4-1.9-3.5-3-5.9-3c-4.7,0-8,3.7-8,9.4s3.3,9.4,8,9.4c2.4,0,4.5-1.2,5.9-3v2.6h3.3V106
				L460.4,106L460.4,106z M455.3,128c-3.3,0-5.2-2.8-5.2-6.2s2.1-6.2,5.2-6.2s5.2,2.8,5.2,6.2S458.5,128,455.3,128z"/>
		</g>
	</g>
</g>
</svg>
