<svg width="265" height="264" viewBox="0 0 265 264" fill="none" xmlns="http://www.w3.org/2000/svg">
<ellipse cx="132.69" cy="131.967" rx="117.5" ry="117" transform="rotate(-7.67407 132.69 131.967)" fill="#FF9F00"/>
<g clip-path="url(#clip0_32_76)">
<path d="M117.686 121.114C101.257 133.8 77.5712 130.755 64.8847 114.325C63.6885 112.776 63.9745 110.551 65.5237 109.355C67.0728 108.159 69.2978 108.445 70.494 109.994C80.7907 123.329 100.02 125.801 113.355 115.504C126.69 105.207 129.162 85.978 118.865 72.6432C117.669 71.094 117.955 68.869 119.504 67.6728C121.054 66.4766 123.279 66.7627 124.475 68.3118C137.161 84.7416 134.116 108.427 117.686 121.114Z" fill="black"/>
<path d="M62.3122 86.8531C58.0056 90.1785 56.8025 96.037 59.183 100.718C59.6829 101.7 60.9603 101.98 61.8344 101.305L73.5695 92.2433C76.2729 90.1558 75.4487 85.8789 72.1664 84.9493C68.8808 84.0222 65.2181 84.6093 62.3122 86.8531Z" fill="black"/>
<path d="M98.5469 58.8741C95.641 61.1179 94.1466 64.513 94.2132 67.9203C94.279 71.3336 98.2117 73.2102 100.915 71.1227L112.65 62.0613C113.524 61.3863 113.577 60.0798 112.753 59.3476C108.827 55.8606 102.854 55.5427 98.5477 58.8681L98.5469 58.8741Z" fill="black"/>
</g>
<defs>
<clipPath id="clip0_32_76">
<rect width="75.2875" height="60.96" fill="white" transform="translate(50.6345 95.8701) rotate(-37.6741)"/>
</clipPath>
</defs>
</svg>
