<svg width="1178" height="488" viewBox="0 0 1178 488" fill="none" xmlns="http://www.w3.org/2000/svg">
<circle cx="833.566" cy="278.566" r="141" transform="rotate(-7.67407 833.566 278.566)" fill="#FFD817"/>
<g clip-path="url(#clip0_32_99)">
<path d="M908.655 293.824C933.237 274.842 937.793 239.405 918.812 214.823C917.022 212.505 913.693 212.077 911.375 213.867C909.057 215.657 908.629 218.986 910.419 221.304C925.825 241.255 922.126 270.025 902.175 285.431C882.224 300.837 853.453 297.138 838.047 277.187C836.258 274.869 832.929 274.441 830.611 276.231C828.293 278.02 827.865 281.349 829.655 283.667C848.636 308.249 884.073 312.805 908.655 293.824Z" fill="black"/>
<path d="M880.019 200.702C886.462 195.727 895.398 196.203 901.272 201.42C902.505 202.515 902.427 204.47 901.119 205.48L883.561 219.037C879.516 222.161 873.637 219.349 873.534 214.246C873.435 209.139 875.671 204.06 880.019 200.702Z" fill="black"/>
<path d="M825.806 242.564C830.154 239.207 835.634 238.328 840.541 239.714C845.456 241.101 846.685 247.504 842.64 250.627L825.082 264.185C823.774 265.195 821.863 264.776 821.115 263.306C817.554 256.303 819.354 247.538 825.797 242.563L825.806 242.564Z" fill="black"/>
</g>
<ellipse cx="515.876" cy="301.968" rx="117" ry="117.5" transform="rotate(-7.67407 515.876 301.968)" fill="#FFD817"/>
<g clip-path="url(#clip1_32_99)">
<path d="M523.709 347.792C497.063 351.383 472.466 332.628 468.876 305.981C468.537 303.469 470.299 301.158 472.811 300.82C475.324 300.481 477.634 302.243 477.973 304.755C480.887 326.382 500.856 341.609 522.483 338.695C544.11 335.781 559.337 315.812 556.423 294.185C556.084 291.672 557.846 289.362 560.359 289.023C562.871 288.685 565.182 290.447 565.52 292.959C569.111 319.605 550.355 344.202 523.709 347.792Z" fill="black"/>
<path d="M483.782 273.499C476.797 274.44 471.654 280.233 471.292 287.025C471.217 288.451 472.469 289.592 473.886 289.401L492.919 286.836C497.303 286.245 499.148 280.914 496.069 277.745C492.983 274.578 488.495 272.864 483.782 273.499Z" fill="black"/>
<path d="M542.548 265.58C537.835 266.215 533.96 269.056 531.828 272.921C529.691 276.792 532.887 281.444 537.272 280.854L556.304 278.289C557.722 278.098 558.627 276.666 558.177 275.311C556.031 268.857 549.537 264.633 542.553 265.574L542.548 265.58Z" fill="black"/>
</g>
<circle cx="1018.57" cy="285.567" r="141" transform="rotate(-7.67407 1018.57 285.567)" fill="#FF0084"/>
<g clip-path="url(#clip2_32_99)">
<path d="M974.985 349.495C1003.1 362.691 1036.7 350.555 1049.9 322.44C1051.14 319.789 1050 316.632 1047.35 315.388C1044.7 314.144 1041.55 315.284 1040.3 317.935C1029.59 340.753 1002.31 350.606 979.49 339.897C956.672 329.187 946.819 301.904 957.528 279.086C958.773 276.435 957.633 273.278 954.982 272.034C952.331 270.789 949.174 271.93 947.93 274.58C934.734 302.695 946.87 336.3 974.985 349.495Z" fill="black"/>
<path d="M1044.74 281.481C1052.11 284.94 1055.77 293.106 1053.81 300.715C1053.4 302.312 1051.62 303.135 1050.13 302.433L1030.05 293.008C1025.42 290.837 1025.24 284.323 1029.73 281.9C1034.23 279.479 1039.77 279.147 1044.74 281.481Z" fill="black"/>
<path d="M982.735 252.38C987.707 254.714 990.992 259.187 992.001 264.185C993.013 269.192 987.878 273.209 983.252 271.038L963.171 261.613C961.675 260.911 961.174 259.02 962.14 257.683C966.743 251.315 975.362 248.912 982.731 252.371L982.735 252.38Z" fill="black"/>
</g>
<ellipse cx="159.062" cy="268.633" rx="141.5" ry="141" transform="rotate(-7.67407 159.062 268.633)" fill="#43FF6C"/>
<g clip-path="url(#clip3_32_99)">
<path d="M90.3469 303.267C61.6178 291.469 47.8447 258.501 59.6425 229.772C60.7549 227.064 63.8519 225.77 66.5607 226.882C69.2696 227.995 70.5634 231.092 69.451 233.8C59.8756 257.118 71.0576 283.883 94.3749 293.459C117.692 303.034 144.458 291.852 154.033 268.535C155.145 265.826 158.242 264.532 160.951 265.644C163.66 266.757 164.954 269.854 163.842 272.563C152.044 301.292 119.076 315.065 90.3469 303.267Z" fill="black"/>
<path d="M93.314 205.888C85.7836 202.795 77.2926 205.619 73.0086 212.205C72.1098 213.588 72.7028 215.452 74.2314 216.08L94.7513 224.506C99.4785 226.448 104.404 222.18 103.153 217.232C101.896 212.281 98.3953 207.974 93.314 205.888Z" fill="black"/>
<path d="M156.674 231.907C151.593 229.82 146.076 230.424 141.711 233.059C137.337 235.698 137.848 242.197 142.575 244.138L163.095 252.565C164.623 253.193 166.355 252.283 166.688 250.668C168.269 242.972 164.213 234.996 156.682 231.903L156.674 231.907Z" fill="black"/>
</g>
<ellipse cx="684.748" cy="158.633" rx="141.5" ry="141" transform="rotate(-7.67407 684.748 158.633)" fill="#0000FE"/>
<g clip-path="url(#clip4_32_99)">
<path d="M616.033 193.267C587.304 181.469 573.531 148.501 585.329 119.772C586.441 117.063 589.538 115.769 592.247 116.882C594.956 117.994 596.25 121.091 595.137 123.8C585.562 147.117 596.744 173.883 620.061 183.458C643.378 193.033 670.144 181.851 679.719 158.534C680.832 155.825 683.929 154.532 686.638 155.644C689.346 156.756 690.64 159.853 689.528 162.562C677.73 191.291 644.762 205.064 616.033 193.267Z" fill="black"/>
<path d="M619 95.8872C611.47 92.7948 602.979 95.6185 598.695 102.204C597.796 103.587 598.389 105.451 599.918 106.079L620.438 114.506C625.165 116.447 630.09 112.18 628.839 107.231C627.582 102.281 624.082 97.9739 619 95.8872Z" fill="black"/>
<path d="M682.36 121.907C677.279 119.82 671.762 120.424 667.397 123.059C663.023 125.698 663.534 132.197 668.261 134.138L688.781 142.565C690.309 143.193 692.042 142.283 692.374 140.668C693.955 132.972 689.899 124.996 682.369 121.903L682.36 121.907Z" fill="black"/>
</g>
<circle cx="317.566" cy="208.109" r="141" transform="rotate(-7.67407 317.566 208.109)" fill="#FF0084"/>
<g clip-path="url(#clip5_32_99)">
<path d="M392.655 223.367C417.237 204.385 421.793 168.948 402.812 144.366C401.022 142.048 397.693 141.62 395.375 143.41C393.057 145.2 392.629 148.529 394.419 150.847C409.825 170.798 406.126 199.568 386.175 214.974C366.224 230.38 337.453 226.681 322.047 206.73C320.258 204.412 316.929 203.984 314.611 205.774C312.293 207.563 311.865 210.892 313.655 213.21C332.636 237.792 368.073 242.348 392.655 223.367Z" fill="black"/>
<path d="M364.019 130.245C370.462 125.27 379.398 125.746 385.272 130.963C386.505 132.058 386.427 134.013 385.119 135.023L367.561 148.58C363.516 151.704 357.637 148.892 357.534 143.789C357.435 138.682 359.671 133.603 364.019 130.245Z" fill="black"/>
<path d="M309.806 172.107C314.154 168.75 319.634 167.872 324.541 169.258C329.456 170.645 330.685 177.047 326.64 180.171L309.082 193.728C307.774 194.738 305.863 194.319 305.115 192.85C301.554 185.847 303.354 177.081 309.797 172.106L309.806 172.107Z" fill="black"/>
</g>
<circle cx="494.176" cy="140.923" r="92" transform="rotate(-7.67407 494.176 140.923)" fill="#FF5A00"/>
<g clip-path="url(#clip6_32_99)">
<path d="M499.79 180.488C479.218 183.26 460.228 168.78 457.456 148.209C457.195 146.269 458.555 144.485 460.495 144.224C462.434 143.962 464.218 145.322 464.48 147.262C466.729 163.959 482.146 175.715 498.843 173.465C515.54 171.215 527.296 155.798 525.046 139.101C524.784 137.161 526.145 135.378 528.084 135.116C530.024 134.855 531.808 136.215 532.069 138.155C534.841 158.727 520.361 177.716 499.79 180.488Z" fill="black"/>
<path d="M468.964 123.131C463.572 123.857 459.601 128.329 459.322 133.573C459.264 134.674 460.23 135.555 461.325 135.407L476.018 133.427C479.403 132.971 480.828 128.855 478.45 126.409C476.068 123.963 472.603 122.64 468.964 123.131Z" fill="black"/>
<path d="M514.334 117.018C510.695 117.508 507.704 119.701 506.058 122.685C504.408 125.674 506.875 129.266 510.26 128.809L524.954 126.83C526.049 126.682 526.747 125.577 526.4 124.531C524.743 119.548 519.73 116.286 514.338 117.013L514.334 117.018Z" fill="black"/>
</g>
<ellipse cx="699.69" cy="306.967" rx="117.5" ry="117" transform="rotate(-7.67407 699.69 306.967)" fill="#FF9F00"/>
<g clip-path="url(#clip7_32_99)">
<path d="M684.686 296.114C668.257 308.8 644.571 305.755 631.885 289.325C630.688 287.776 630.975 285.551 632.524 284.355C634.073 283.159 636.298 283.445 637.494 284.994C647.791 298.329 667.02 300.801 680.355 290.504C693.69 280.207 696.162 260.978 685.865 247.643C684.669 246.094 684.955 243.869 686.504 242.673C688.054 241.477 690.279 241.763 691.475 243.312C704.161 259.742 701.116 283.427 684.686 296.114Z" fill="black"/>
<path d="M629.312 261.853C625.006 265.179 623.802 271.037 626.183 275.718C626.683 276.7 627.96 276.98 628.834 276.305L640.569 267.243C643.273 265.156 642.449 260.879 639.166 259.949C635.881 259.022 632.218 259.609 629.312 261.853Z" fill="black"/>
<path d="M665.547 233.874C662.641 236.118 661.147 239.513 661.213 242.92C661.279 246.334 665.212 248.21 667.915 246.123L679.65 237.061C680.524 236.386 680.577 235.08 679.753 234.348C675.827 230.861 669.854 230.543 665.548 233.868L665.547 233.874Z" fill="black"/>
</g>
<ellipse cx="339.941" cy="355.44" rx="117.5" ry="117" transform="rotate(-7.67407 339.941 355.44)" fill="black"/>
<g clip-path="url(#clip8_32_99)">
<path d="M352.211 340.912C371.413 348.798 393.448 339.592 401.333 320.39C402.076 318.58 401.212 316.51 399.401 315.766C397.591 315.023 395.521 315.887 394.777 317.698C388.377 333.283 370.488 340.756 354.903 334.356C339.319 327.956 331.845 310.067 338.245 294.483C338.988 292.672 338.124 290.602 336.313 289.859C334.503 289.115 332.433 289.98 331.689 291.79C323.804 310.992 333.009 333.027 352.211 340.912Z" fill="white"/>
<path d="M396.542 293.216C401.575 295.283 404.286 300.614 403.23 305.758C403.007 306.838 401.85 307.445 400.828 307.026L387.113 301.394C383.954 300.096 383.616 295.754 386.536 293.989C389.459 292.225 393.146 291.822 396.542 293.216Z" fill="white"/>
<path d="M354.194 275.826C357.591 277.22 359.93 280.099 360.768 283.402C361.608 286.711 358.312 289.562 355.153 288.264L341.438 282.632C340.416 282.213 340.02 280.967 340.62 280.043C343.484 275.641 349.159 273.753 354.192 275.82L354.194 275.826Z" fill="white"/>
</g>
<defs>
<clipPath id="clip0_32_99">
<rect width="112.643" height="91.2066" fill="white" transform="matrix(-0.7915 0.611169 0.611169 0.7915 897.491 187.211)"/>
</clipPath>
<clipPath id="clip1_32_99">
<rect width="97.518" height="78.96" fill="white" transform="translate(464.843 276.051) rotate(-7.67407)"/>
</clipPath>
<clipPath id="clip2_32_99">
<rect width="112.643" height="91.2066" fill="white" transform="matrix(-0.90525 -0.424878 -0.424878 0.90525 1064.72 290.86)"/>
</clipPath>
<clipPath id="clip3_32_99">
<rect width="112.643" height="91.2066" fill="white" transform="translate(72.8945 197.502) rotate(22.3259)"/>
</clipPath>
<clipPath id="clip4_32_99">
<rect width="112.643" height="91.2066" fill="white" transform="translate(598.581 87.502) rotate(22.3259)"/>
</clipPath>
<clipPath id="clip5_32_99">
<rect width="112.643" height="91.2066" fill="white" transform="matrix(-0.7915 0.611169 0.611169 0.7915 381.491 116.754)"/>
</clipPath>
<clipPath id="clip6_32_99">
<rect width="75.2875" height="60.96" fill="white" transform="translate(454.343 125.101) rotate(-7.67407)"/>
</clipPath>
<clipPath id="clip7_32_99">
<rect width="75.2875" height="60.96" fill="white" transform="translate(617.635 270.87) rotate(-37.6741)"/>
</clipPath>
<clipPath id="clip8_32_99">
<rect width="75.2875" height="60.96" fill="white" transform="matrix(-0.925038 -0.379875 -0.379875 0.925038 410.19 298.821)"/>
</clipPath>
</defs>
</svg>
